<svg height="528px" width="923px" class="nvd3-svg" style="height: 528px; width: 100%;" version="1.1" xmlns="http://www.w3.org/2000/svg"><g class="nvd3 nv-wrap nv-discreteBarWithAxes"><g transform="translate(60,25)"><defs><clipPath id="nv-x-label-clip-192"><rect width="29.27586206896552" height="16" x="-14.63793103448276"></rect></clipPath></defs><g class="nv-x nv-axis nvd3-svg" transform="translate(0,458)"><g class="nvd3 nv-wrap nv-axis"><g><g class="tick" transform="translate(17.890804597701152,0)" style="opacity: 1;"><line y2="-458" x2="0"></line><text dy=".71em" y="3" transform="translate(0,0)" style="text-anchor: middle;" x="0">38</text></g><g class="tick" transform="translate(50.419540229885065,0)" style="opacity: 1;"><line y2="-458" x2="0"></line><text dy=".71em" y="3" transform="translate(0,0)" style="text-anchor: middle;" x="0">16</text></g><g class="tick" transform="translate(82.94827586206897,0)" style="opacity: 1;"><line y2="-458" x2="0"></line><text dy=".71em" y="3" transform="translate(0,0)" style="text-anchor: middle;" x="0">10</text></g><g class="tick" transform="translate(115.47701149425288,0)" style="opacity: 1;"><line y2="-458" x2="0"></line><text dy=".71em" y="3" transform="translate(0,0)" style="text-anchor: middle;" x="0">62</text></g><g class="tick" transform="translate(148.0057471264368,0)" style="opacity: 1;"><line y2="-458" x2="0"></line><text dy=".71em" y="3" transform="translate(0,0)" style="text-anchor: middle;" x="0">87</text></g><g class="tick" transform="translate(180.5344827586207,0)" style="opacity: 1;"><line y2="-458" x2="0"></line><text dy=".71em" y="3" transform="translate(0,0)" style="text-anchor: middle;" x="0">76</text></g><g class="tick" transform="translate(213.06321839080462,0)" style="opacity: 1;"><line y2="-458" x2="0"></line><text dy=".71em" y="3" transform="translate(0,0)" style="text-anchor: middle;" x="0">43</text></g><g class="tick" transform="translate(245.59195402298855,0)" style="opacity: 1;"><line y2="-458" x2="0"></line><text dy=".71em" y="3" transform="translate(0,0)" style="text-anchor: middle;" x="0">13</text></g><g class="tick" transform="translate(278.1206896551724,0)" style="opacity: 1;"><line y2="-458" x2="0"></line><text dy=".71em" y="3" transform="translate(0,0)" style="text-anchor: middle;" x="0">11</text></g><g class="tick" transform="translate(310.6494252873563,0)" style="opacity: 1;"><line y2="-458" x2="0"></line><text dy=".71em" y="3" transform="translate(0,0)" style="text-anchor: middle;" x="0">35</text></g><g class="tick" transform="translate(343.1781609195402,0)" style="opacity: 1;"><line y2="-458" x2="0"></line><text dy=".71em" y="3" transform="translate(0,0)" style="text-anchor: middle;" x="0">37</text></g><g class="tick" transform="translate(375.7068965517241,0)" style="opacity: 1;"><line y2="-458" x2="0"></line><text dy=".71em" y="3" transform="translate(0,0)" style="text-anchor: middle;" x="0">26</text></g><g class="tick" transform="translate(408.235632183908,0)" style="opacity: 1;"><line y2="-458" x2="0"></line><text dy=".71em" y="3" transform="translate(0,0)" style="text-anchor: middle;" x="0">1</text></g><g class="tick" transform="translate(440.7643678160919,0)" style="opacity: 1;"><line y2="-458" x2="0"></line><text dy=".71em" y="3" transform="translate(0,0)" style="text-anchor: middle;" x="0">68</text></g><g class="tick" transform="translate(473.2931034482759,0)" style="opacity: 1;"><line y2="-458" x2="0"></line><text dy=".71em" y="3" transform="translate(0,0)" style="text-anchor: middle;" x="0">18</text></g><g class="tick" transform="translate(505.82183908045977,0)" style="opacity: 1;"><line y2="-458" x2="0"></line><text dy=".71em" y="3" transform="translate(0,0)" style="text-anchor: middle;" x="0">14</text></g><g class="tick" transform="translate(538.3505747126437,0)" style="opacity: 1;"><line y2="-458" x2="0"></line><text dy=".71em" y="3" transform="translate(0,0)" style="text-anchor: middle;" x="0">77</text></g><g class="tick" transform="translate(570.8793103448277,0)" style="opacity: 1;"><line y2="-458" x2="0"></line><text dy=".71em" y="3" transform="translate(0,0)" style="text-anchor: middle;" x="0">57</text></g><g class="tick" transform="translate(603.4080459770115,0)" style="opacity: 1;"><line y2="-458" x2="0"></line><text dy=".71em" y="3" transform="translate(0,0)" style="text-anchor: middle;" x="0">53</text></g><g class="tick" transform="translate(635.9367816091955,0)" style="opacity: 1;"><line y2="-458" x2="0"></line><text dy=".71em" y="3" transform="translate(0,0)" style="text-anchor: middle;" x="0">21</text></g><g class="tick" transform="translate(668.4655172413793,0)" style="opacity: 1;"><line y2="-458" x2="0"></line><text dy=".71em" y="3" transform="translate(0,0)" style="text-anchor: middle;" x="0">48</text></g><g class="tick" transform="translate(700.9942528735633,0)" style="opacity: 1;"><line y2="-458" x2="0"></line><text dy=".71em" y="3" transform="translate(0,0)" style="text-anchor: middle;" x="0">51</text></g><g class="tick" transform="translate(733.5229885057472,0)" style="opacity: 1;"><line y2="-458" x2="0"></line><text dy=".71em" y="3" transform="translate(0,0)" style="text-anchor: middle;" x="0">55</text></g><g class="tick" transform="translate(766.051724137931,0)" style="opacity: 1;"><line y2="-458" x2="0"></line><text dy=".71em" y="3" transform="translate(0,0)" style="text-anchor: middle;" x="0">25</text></g><g class="tick" transform="translate(798.580459770115,0)" style="opacity: 1;"><line y2="-458" x2="0"></line><text dy=".71em" y="3" transform="translate(0,0)" style="text-anchor: middle;" x="0">84</text></g><g class="tick" transform="translate(831.109195402299,0)" style="opacity: 1;"><line y2="-458" x2="0"></line><text dy=".71em" y="3" transform="translate(0,0)" style="text-anchor: middle;" x="0">40</text></g><path class="domain" d="M0,0V0H849V0"></path><text class="nv-axislabel" text-anchor="middle" y="36" x="424.50000000000006">X</text></g></g></g><g class="nv-y nv-axis nvd3-svg"><g class="nv-zeroLine"><line x1="0" x2="849" y1="458" y2="458"></line></g><g class="nvd3 nv-wrap nv-axis"><g><g class="tick zero" transform="translate(0,458)" style="opacity: 1;"><line x2="849" y2="0"></line><text dy=".32em" x="-3" opacity="0" style="text-anchor: end;" y="0">0.00</text></g><g class="tick" transform="translate(0,400.7786106946527)" style="opacity: 1;"><line x2="849" y2="0"></line><text dy=".32em" x="-3" opacity="1" style="text-anchor: end;" y="0">1000.00</text></g><g class="tick" transform="translate(0,343.55722138930537)" style="opacity: 1;"><line x2="849" y2="0"></line><text dy=".32em" x="-3" opacity="1" style="text-anchor: end;" y="0">2000.00</text></g><g class="tick" transform="translate(0,286.33583208395805)" style="opacity: 1;"><line x2="849" y2="0"></line><text dy=".32em" x="-3" opacity="1" style="text-anchor: end;" y="0">3000.00</text></g><g class="tick" transform="translate(0,229.11444277861068)" style="opacity: 1;"><line x2="849" y2="0"></line><text dy=".32em" x="-3" opacity="1" style="text-anchor: end;" y="0">4000.00</text></g><g class="tick" transform="translate(0,171.8930534732634)" style="opacity: 1;"><line x2="849" y2="0"></line><text dy=".32em" x="-3" opacity="1" style="text-anchor: end;" y="0">5000.00</text></g><g class="tick" transform="translate(0,114.67166416791606)" style="opacity: 1;"><line x2="849" y2="0"></line><text dy=".32em" x="-3" opacity="1" style="text-anchor: end;" y="0">6000.00</text></g><g class="tick" transform="translate(0,57.4502748625687)" style="opacity: 1;"><line x2="849" y2="0"></line><text dy=".32em" x="-3" opacity="1" style="text-anchor: end;" y="0">7000.00</text></g><g class="tick" transform="translate(0,0.22888555722138682)" opacity="0" style="opacity: 1;"><line x2="849" y2="0"></line><text dy=".32em" x="-3" opacity="0" style="text-anchor: end;" y="0">8000.00</text></g><path class="domain" d="M0,0H0V458H0"></path><text class="nv-axislabel" transform="rotate(-90)" y="-40" x="-229" style="text-anchor: middle;">Y</text></g><g class="nv-axisMaxMin nv-axisMaxMin-y nv-axisMin-y" transform="translate(0,458)"><text dy=".32em" y="0" x="-3" text-anchor="end" style="opacity: 1;">0.00</text></g><g class="nv-axisMaxMin nv-axisMaxMin-y nv-axisMax-y" transform="translate(0,0)"><text dy=".32em" y="0" x="-3" text-anchor="end" style="opacity: 1;">8004.00</text></g></g></g><g class="nv-barsWrap nvd3-svg"><g class="nvd3 nv-wrap nv-discretebar" transform="translate(0,0)"><g><g class="nv-groups"><g class="nv-group nv-series-0" style="stroke-opacity: 1; fill-opacity: 0.75;"><g transform="translate(4.7166666984558105,177.6151885986328)" class="nv-bar positive" style="fill: rgb(31, 119, 180); stroke: rgb(31, 119, 180);"><rect height="280.3848075962019" width="26.348275862068967" class="discreteBar"></rect></g><g transform="translate(37.24540328979492,177.6151885986328)" class="nv-bar positive" style="fill: rgb(174, 199, 232); stroke: rgb(174, 199, 232);"><rect height="280.3848075962019" width="26.348275862068967" class="discreteBar"></rect></g><g transform="translate(69.77413940429688,177.6151885986328)" class="nv-bar positive" style="fill: rgb(255, 127, 14); stroke: rgb(255, 127, 14);"><rect height="280.3848075962019" width="26.348275862068967" class="discreteBar"></rect></g><g transform="translate(102.30287170410156,177.6151885986328)" class="nv-bar positive" style="fill: rgb(255, 187, 120); stroke: rgb(255, 187, 120);"><rect height="280.3848075962019" width="26.348275862068967" class="discreteBar"></rect></g><g transform="translate(134.83160400390625,234.6649169921875)" class="nv-bar positive" style="fill: rgb(44, 160, 44); stroke: rgb(44, 160, 44);"><rect height="223.33508245877061" width="26.348275862068967" class="discreteBar"></rect></g><g transform="translate(167.3603515625,234.6649169921875)" class="nv-bar positive" style="fill: rgb(152, 223, 138); stroke: rgb(152, 223, 138);"><rect height="223.33508245877061" width="26.348275862068967" class="discreteBar"></rect></g><g transform="translate(199.8890838623047,331.71240234375)" class="nv-bar positive" style="fill: rgb(214, 39, 40); stroke: rgb(214, 39, 40);"><rect height="126.28760619690155" width="26.348275862068967" class="discreteBar"></rect></g><g transform="translate(232.41781616210938,331.71240234375)" class="nv-bar positive" style="fill: rgb(255, 152, 150); stroke: rgb(255, 152, 150);"><rect height="126.28760619690155" width="26.348275862068967" class="discreteBar"></rect></g><g transform="translate(264.9465637207031,331.71240234375)" class="nv-bar positive" style="fill: rgb(148, 103, 189); stroke: rgb(148, 103, 189);"><rect height="126.28760619690155" width="26.348275862068967" class="discreteBar"></rect></g><g transform="translate(69.77413940429688,331.71240234375)" class="nv-bar positive" style="fill: rgb(197, 176, 213); stroke: rgb(197, 176, 213);"><rect height="126.28760619690155" width="26.348275862068967" class="discreteBar"></rect></g><g transform="translate(297.47528076171875,28.72513771057129)" class="nv-bar positive" style="fill: rgb(140, 86, 75); stroke: rgb(140, 86, 75);"><rect height="429.27486256871566" width="26.348275862068967" class="discreteBar"></rect></g><g transform="translate(330.0040283203125,28.72513771057129)" class="nv-bar positive" style="fill: rgb(196, 156, 148); stroke: rgb(196, 156, 148);"><rect height="429.27486256871566" width="26.348275862068967" class="discreteBar"></rect></g><g transform="translate(362.5327453613281,28.72513771057129)" class="nv-bar positive" style="fill: rgb(227, 119, 194); stroke: rgb(227, 119, 194);"><rect height="429.27486256871566" width="26.348275862068967" class="discreteBar"></rect></g><g transform="translate(395.0614929199219,28.72513771057129)" class="nv-bar positive" style="fill: rgb(247, 182, 210); stroke: rgb(247, 182, 210);"><rect height="429.27486256871566" width="26.348275862068967" class="discreteBar"></rect></g><g transform="translate(427.5902404785156,28.72513771057129)" class="nv-bar positive" style="fill: rgb(127, 127, 127); stroke: rgb(127, 127, 127);"><rect height="429.27486256871566" width="26.348275862068967" class="discreteBar"></rect></g><g transform="translate(460.11895751953125,28.72513771057129)" class="nv-bar positive" style="fill: rgb(199, 199, 199); stroke: rgb(199, 199, 199);"><rect height="429.27486256871566" width="26.348275862068967" class="discreteBar"></rect></g><g transform="translate(492.647705078125,28.72513771057129)" class="nv-bar positive" style="fill: rgb(188, 189, 34); stroke: rgb(188, 189, 34);"><rect height="429.27486256871566" width="26.348275862068967" class="discreteBar"></rect></g><g transform="translate(69.77413940429688,28.72513771057129)" class="nv-bar positive" style="fill: rgb(219, 219, 141); stroke: rgb(219, 219, 141);"><rect height="429.27486256871566" width="26.348275862068967" class="discreteBar"></rect></g><g transform="translate(525.1764526367188,302.7011413574219)" class="nv-bar positive" style="fill: rgb(23, 190, 207); stroke: rgb(23, 190, 207);"><rect height="155.29885057471262" width="26.348275862068967" class="discreteBar"></rect></g><g transform="translate(557.7052001953125,148.7183837890625)" class="nv-bar positive" style="fill: rgb(158, 218, 229); stroke: rgb(158, 218, 229);"><rect height="309.2816091954023" width="26.348275862068967" class="discreteBar"></rect></g><g transform="translate(590.23388671875,148.7183837890625)" class="nv-bar positive" style="fill: rgb(31, 119, 180); stroke: rgb(31, 119, 180);"><rect height="309.2816091954023" width="26.348275862068967" class="discreteBar"></rect></g><g transform="translate(622.7626342773438,148.7183837890625)" class="nv-bar positive" style="fill: rgb(174, 199, 232); stroke: rgb(174, 199, 232);"><rect height="309.2816091954023" width="26.348275862068967" class="discreteBar"></rect></g><g transform="translate(655.2913818359375,234.72213745117188)" class="nv-bar positive" style="fill: rgb(255, 127, 14); stroke: rgb(255, 127, 14);"><rect height="223.27786106946527" width="26.348275862068967" class="discreteBar"></rect></g><g transform="translate(687.8201293945312,0)" class="nv-bar positive" style="fill: rgb(255, 187, 120); stroke: rgb(255, 187, 120);"><rect height="458" width="26.348275862068967" class="discreteBar"></rect></g><g transform="translate(720.348876953125,0)" class="nv-bar positive" style="fill: rgb(44, 160, 44); stroke: rgb(44, 160, 44);"><rect height="458" width="26.348275862068967" class="discreteBar"></rect></g><g transform="translate(720.348876953125,302.8155822753906)" class="nv-bar positive" style="fill: rgb(152, 223, 138); stroke: rgb(152, 223, 138);"><rect height="155.18440779610194" width="26.348275862068967" class="discreteBar"></rect></g><g transform="translate(720.348876953125,302.8155822753906)" class="nv-bar positive" style="fill: rgb(214, 39, 40); stroke: rgb(214, 39, 40);"><rect height="155.18440779610194" width="26.348275862068967" class="discreteBar"></rect></g><g transform="translate(752.8775634765625,302.8155822753906)" class="nv-bar positive" style="fill: rgb(255, 152, 150); stroke: rgb(255, 152, 150);"><rect height="155.18440779610194" width="26.348275862068967" class="discreteBar"></rect></g><g transform="translate(785.4063110351562,148.2606201171875)" class="nv-bar positive" style="fill: rgb(148, 103, 189); stroke: rgb(148, 103, 189);"><rect height="309.7393803098451" width="26.348275862068967" class="discreteBar"></rect></g><g transform="translate(817.93505859375,303.158935546875)" class="nv-bar positive" style="fill: rgb(197, 176, 213); stroke: rgb(197, 176, 213);"><rect height="154.84107946026984" width="26.348275862068967" class="discreteBar"></rect></g></g></g></g></g></g><g class="nv-legendWrap nvd3-svg" transform="translate(0,-30)"><g class="nvd3 nv-legend" transform="translate(0,5)"><g transform="translate(786.982421875,5)"><g class="nv-series" transform="translate(0,5)"><circle class="nv-legend-symbol" r="5" style="stroke-width: 2; fill: rgb(31, 119, 180); fill-opacity: 1; stroke: rgb(31, 119, 180);"></circle><text text-anchor="start" class="nv-legend-text" dy=".32em" dx="8" fill="#000">puma</text></g></g></g></g></g></g></svg>