<svg height="528px" width="915px" class="nvd3-svg" style="height: 528px; width: 100%;" version="1.1" xmlns="http://www.w3.org/2000/svg"><g class="nvd3 nv-wrap nv-pieChart" transform="translate(5,30)"><g><g class="nv-pieWrap nvd3-svg"><g class="nvd3 nv-wrap nv-pie nv-chart-448" transform="translate(0,0)"><g><g class="nv-pie" transform="translate(454.5,249)"><g class="nv-slice" fill="#1f77b4" stroke="#1f77b4"><path d="M1.2197482119507637e-14,-199.2A199.2,199.2 0 0,1 189.45045804599457,-61.55618527948952L0,0Z"></path></g><g class="nv-slice" fill="#aec7e8" stroke="#aec7e8"><path d="M189.45045804599457,-61.55618527948952A199.2,199.2 0 0,1 -189.45045804599457,61.55618527948954L0,0Z"></path></g><g class="nv-slice" fill="#ff7f0e" stroke="#ff7f0e"><path d="M-189.45045804599457,61.55618527948954A199.2,199.2 0 0,1 -3.659244635852291e-14,-199.2L0,0Z"></path></g></g><g class="nv-pieLabels" transform="translate(454.5,249)"><g class="nv-label" transform="translate(58.54341112833032,-80.57809263974477) rotate(-54)"><rect rx="3" ry="3" style="stroke: rgb(255, 255, 255); fill: rgb(255, 255, 255);"></rect><text style="text-anchor: start; fill: rgb(0, 0, 0);">Anger</text></g><g class="nv-label" transform="translate(30.778092639744763,94.72522902299728) rotate(72)"><rect rx="3" ry="3" style="stroke: rgb(255, 255, 255); fill: rgb(255, 255, 255);"></rect><text style="text-anchor: start; fill: rgb(0, 0, 0);">Joy</text></g><g class="nv-label" transform="translate(-80.57809263974477,-58.54341112833031) rotate(396)"><rect rx="3" ry="3" style="stroke: rgb(255, 255, 255); fill: rgb(255, 255, 255);"></rect><text style="text-anchor: end; fill: rgb(0, 0, 0);">Sadness</text></g></g></g></g></g><g class="nv-legendWrap nvd3-svg" transform="translate(0,-30)"><g class="nvd3 nv-legend" transform="translate(0,5)"><g transform="translate(715.60546875,5)"><g class="nv-series" transform="translate(0,5)"><circle class="nv-legend-symbol" r="5" style="stroke-width: 2; fill: rgb(31, 119, 180); fill-opacity: 1; stroke: rgb(31, 119, 180);"></circle><text text-anchor="start" class="nv-legend-text" dy=".32em" dx="8" fill="#000">Anger</text></g><g class="nv-series" transform="translate(64.021484375,5)"><circle class="nv-legend-symbol" r="5" style="stroke-width: 2; fill: rgb(174, 199, 232); fill-opacity: 1; stroke: rgb(174, 199, 232);"></circle><text text-anchor="start" class="nv-legend-text" dy=".32em" dx="8" fill="#000">Joy</text></g><g class="nv-series" transform="translate(114.6953125,5)"><circle class="nv-legend-symbol" r="5" style="stroke-width: 2; fill: rgb(255, 127, 14); fill-opacity: 1; stroke: rgb(255, 127, 14);"></circle><text text-anchor="start" class="nv-legend-text" dy=".32em" dx="8" fill="#000">Sadness</text></g></g></g></g></g></g></svg>